<mxfile host="app.diagrams.net" modified="2023-11-26T17:01:46.518Z" agent="Mozilla/5.0 (Windows NT 10.0; Win64; x64) AppleWebKit/537.36 (KHTML, like Gecko) Chrome/119.0.0.0 Safari/537.36" etag="OKRaL8Z0YtxXaAwWf-NT" version="22.1.4" type="device">
  <diagram name="Página-1" id="Gcu6QkLEbJUsuPrDkczb">
    <mxGraphModel dx="1509" dy="808" grid="1" gridSize="10" guides="1" tooltips="1" connect="1" arrows="1" fold="1" page="1" pageScale="1" pageWidth="827" pageHeight="1169" math="0" shadow="0">
      <root>
        <mxCell id="0" />
        <mxCell id="1" parent="0" />
        <mxCell id="gV20s4b7UiAh3y79HGsj-1" value="Repartidor" style="whiteSpace=wrap;html=1;aspect=fixed;fillColor=#f8cecc;strokeColor=#b85450;" vertex="1" parent="1">
          <mxGeometry x="380" y="160" width="80" height="80" as="geometry" />
        </mxCell>
        <mxCell id="gV20s4b7UiAh3y79HGsj-2" value="Recepcionista" style="whiteSpace=wrap;html=1;aspect=fixed;fillColor=#ffe6cc;strokeColor=#d79b00;" vertex="1" parent="1">
          <mxGeometry x="380" y="580" width="80" height="80" as="geometry" />
        </mxCell>
        <mxCell id="gV20s4b7UiAh3y79HGsj-3" value="Pizzero" style="whiteSpace=wrap;html=1;aspect=fixed;fillColor=#d5e8d4;strokeColor=#82b366;" vertex="1" parent="1">
          <mxGeometry x="620" y="160" width="80" height="80" as="geometry" />
        </mxCell>
        <mxCell id="gV20s4b7UiAh3y79HGsj-4" value="Ayudantes&amp;nbsp;" style="whiteSpace=wrap;html=1;aspect=fixed;fillColor=#e1d5e7;strokeColor=#9673a6;" vertex="1" parent="1">
          <mxGeometry x="740" y="160" width="80" height="80" as="geometry" />
        </mxCell>
        <mxCell id="gV20s4b7UiAh3y79HGsj-5" value="Supervisores" style="whiteSpace=wrap;html=1;aspect=fixed;" vertex="1" parent="1">
          <mxGeometry x="620" y="670" width="80" height="80" as="geometry" />
        </mxCell>
        <mxCell id="gV20s4b7UiAh3y79HGsj-6" value="Intendencia" style="whiteSpace=wrap;html=1;aspect=fixed;fillColor=#fff2cc;strokeColor=#d6b656;" vertex="1" parent="1">
          <mxGeometry x="960" y="160" width="80" height="80" as="geometry" />
        </mxCell>
        <mxCell id="gV20s4b7UiAh3y79HGsj-7" value="Proveedores" style="whiteSpace=wrap;html=1;aspect=fixed;fillColor=#60a917;fontColor=#ffffff;strokeColor=#2D7600;" vertex="1" parent="1">
          <mxGeometry x="1080" y="160" width="80" height="80" as="geometry" />
        </mxCell>
        <mxCell id="gV20s4b7UiAh3y79HGsj-8" value="Contador" style="whiteSpace=wrap;html=1;aspect=fixed;fillColor=#0050ef;fontColor=#ffffff;strokeColor=#001DBC;" vertex="1" parent="1">
          <mxGeometry x="850" y="675" width="80" height="80" as="geometry" />
        </mxCell>
        <mxCell id="gV20s4b7UiAh3y79HGsj-9" value="Mantenimiento" style="whiteSpace=wrap;html=1;aspect=fixed;fillColor=#e3c800;fontColor=#000000;strokeColor=#B09500;" vertex="1" parent="1">
          <mxGeometry x="500" y="570" width="80" height="80" as="geometry" />
        </mxCell>
        <mxCell id="gV20s4b7UiAh3y79HGsj-10" value="Entregar pizza" style="whiteSpace=wrap;html=1;aspect=fixed;fillColor=#ffcccc;strokeColor=#36393d;" vertex="1" parent="1">
          <mxGeometry x="500" y="160" width="80" height="80" as="geometry" />
        </mxCell>
        <mxCell id="gV20s4b7UiAh3y79HGsj-11" value="Tomar pedido" style="whiteSpace=wrap;html=1;aspect=fixed;fillColor=#ffe6cc;strokeColor=#d79b00;" vertex="1" parent="1">
          <mxGeometry x="380" y="260" width="80" height="80" as="geometry" />
        </mxCell>
        <mxCell id="gV20s4b7UiAh3y79HGsj-12" value="Cobrar dinero" style="whiteSpace=wrap;html=1;aspect=fixed;fillColor=#ffe6cc;strokeColor=#d79b00;" vertex="1" parent="1">
          <mxGeometry x="500" y="370" width="80" height="80" as="geometry" />
        </mxCell>
        <mxCell id="gV20s4b7UiAh3y79HGsj-13" value="Decir promociones" style="whiteSpace=wrap;html=1;aspect=fixed;fillColor=#ffe6cc;strokeColor=#d79b00;" vertex="1" parent="1">
          <mxGeometry x="1080" y="480" width="80" height="80" as="geometry" />
        </mxCell>
        <mxCell id="gV20s4b7UiAh3y79HGsj-14" value="Recibir llamadas" style="whiteSpace=wrap;html=1;aspect=fixed;fillColor=#ffe6cc;strokeColor=#d79b00;" vertex="1" parent="1">
          <mxGeometry x="960" y="580" width="80" height="80" as="geometry" />
        </mxCell>
        <mxCell id="gV20s4b7UiAh3y79HGsj-15" value="Cocinar pizza" style="whiteSpace=wrap;html=1;aspect=fixed;fillColor=#d5e8d4;strokeColor=#82b366;" vertex="1" parent="1">
          <mxGeometry x="960" y="470" width="80" height="80" as="geometry" />
        </mxCell>
        <mxCell id="gV20s4b7UiAh3y79HGsj-16" value="Verificar calidad" style="whiteSpace=wrap;html=1;aspect=fixed;" vertex="1" parent="1">
          <mxGeometry x="500" y="260" width="80" height="80" as="geometry" />
        </mxCell>
        <mxCell id="gV20s4b7UiAh3y79HGsj-17" value="Lavar loza" style="whiteSpace=wrap;html=1;aspect=fixed;fillColor=#fff2cc;strokeColor=#d6b656;" vertex="1" parent="1">
          <mxGeometry x="850" y="260" width="80" height="80" as="geometry" />
        </mxCell>
        <mxCell id="gV20s4b7UiAh3y79HGsj-18" value="Administrar ingresos" style="whiteSpace=wrap;html=1;aspect=fixed;fillColor=#0050ef;fontColor=#ffffff;strokeColor=#001DBC;" vertex="1" parent="1">
          <mxGeometry x="960" y="260" width="80" height="80" as="geometry" />
        </mxCell>
        <mxCell id="gV20s4b7UiAh3y79HGsj-19" value="Declarar impuestos" style="whiteSpace=wrap;html=1;aspect=fixed;fillColor=#0050ef;fontColor=#ffffff;strokeColor=#001DBC;" vertex="1" parent="1">
          <mxGeometry x="960" y="675" width="80" height="80" as="geometry" />
        </mxCell>
        <mxCell id="gV20s4b7UiAh3y79HGsj-20" value="Pagar sueldos" style="whiteSpace=wrap;html=1;aspect=fixed;fillColor=#0050ef;fontColor=#ffffff;strokeColor=#001DBC;" vertex="1" parent="1">
          <mxGeometry x="500" y="470" width="80" height="80" as="geometry" />
        </mxCell>
        <mxCell id="gV20s4b7UiAh3y79HGsj-21" value="Atención a clientes" style="whiteSpace=wrap;html=1;aspect=fixed;" vertex="1" parent="1">
          <mxGeometry x="380" y="675" width="80" height="80" as="geometry" />
        </mxCell>
        <mxCell id="gV20s4b7UiAh3y79HGsj-22" value="Limpiar baños" style="whiteSpace=wrap;html=1;aspect=fixed;fillColor=#fff2cc;strokeColor=#d6b656;" vertex="1" parent="1">
          <mxGeometry x="960" y="370" width="80" height="80" as="geometry" />
        </mxCell>
        <mxCell id="gV20s4b7UiAh3y79HGsj-23" value="Desinfectar cocina" style="whiteSpace=wrap;html=1;aspect=fixed;fillColor=#fff2cc;strokeColor=#d6b656;" vertex="1" parent="1">
          <mxGeometry x="740" y="580" width="80" height="80" as="geometry" />
        </mxCell>
        <mxCell id="gV20s4b7UiAh3y79HGsj-24" value="Mantenimientos de los hornos" style="whiteSpace=wrap;html=1;aspect=fixed;fillColor=#fff2cc;strokeColor=#d6b656;" vertex="1" parent="1">
          <mxGeometry x="620" y="270" width="80" height="80" as="geometry" />
        </mxCell>
        <mxCell id="gV20s4b7UiAh3y79HGsj-25" value="Tirar bassura" style="whiteSpace=wrap;html=1;aspect=fixed;fillColor=#fff2cc;strokeColor=#d6b656;" vertex="1" parent="1">
          <mxGeometry x="620" y="470" width="80" height="80" as="geometry" />
        </mxCell>
        <mxCell id="gV20s4b7UiAh3y79HGsj-26" value="Supervisar personal" style="whiteSpace=wrap;html=1;aspect=fixed;" vertex="1" parent="1">
          <mxGeometry x="380" y="360" width="80" height="80" as="geometry" />
        </mxCell>
        <mxCell id="gV20s4b7UiAh3y79HGsj-27" value="Cortar pizza" style="whiteSpace=wrap;html=1;aspect=fixed;fillColor=#d5e8d4;strokeColor=#82b366;" vertex="1" parent="1">
          <mxGeometry x="620" y="370" width="80" height="80" as="geometry" />
        </mxCell>
        <mxCell id="gV20s4b7UiAh3y79HGsj-28" value="Empacar pizza" style="whiteSpace=wrap;html=1;aspect=fixed;fillColor=#d5e8d4;strokeColor=#82b366;" vertex="1" parent="1">
          <mxGeometry x="850" y="570" width="80" height="80" as="geometry" />
        </mxCell>
        <mxCell id="gV20s4b7UiAh3y79HGsj-29" value="Preparar ingredientes" style="whiteSpace=wrap;html=1;aspect=fixed;fillColor=#d5e8d4;strokeColor=#82b366;" vertex="1" parent="1">
          <mxGeometry x="620" y="570" width="80" height="80" as="geometry" />
        </mxCell>
        <mxCell id="gV20s4b7UiAh3y79HGsj-30" value="Conducir moto" style="whiteSpace=wrap;html=1;aspect=fixed;fillColor=#ffcccc;strokeColor=#36393d;" vertex="1" parent="1">
          <mxGeometry x="740" y="480" width="80" height="80" as="geometry" />
        </mxCell>
        <mxCell id="gV20s4b7UiAh3y79HGsj-31" value="Vender ingredientes" style="whiteSpace=wrap;html=1;aspect=fixed;fillColor=#60a917;fontColor=#ffffff;strokeColor=#2D7600;" vertex="1" parent="1">
          <mxGeometry x="850" y="160" width="80" height="80" as="geometry" />
        </mxCell>
        <mxCell id="gV20s4b7UiAh3y79HGsj-32" value="Entregar ingredientes" style="whiteSpace=wrap;html=1;aspect=fixed;fillColor=#60a917;fontColor=#ffffff;strokeColor=#2D7600;" vertex="1" parent="1">
          <mxGeometry x="1080" y="380" width="80" height="80" as="geometry" />
        </mxCell>
        <mxCell id="gV20s4b7UiAh3y79HGsj-33" value="Administrar inventario" style="whiteSpace=wrap;html=1;aspect=fixed;fillColor=#e1d5e7;strokeColor=#9673a6;" vertex="1" parent="1">
          <mxGeometry x="740" y="270" width="80" height="80" as="geometry" />
        </mxCell>
        <mxCell id="gV20s4b7UiAh3y79HGsj-34" value="Checar el sistema eléctrico" style="whiteSpace=wrap;html=1;aspect=fixed;fillColor=#e3c800;fontColor=#000000;strokeColor=#B09500;" vertex="1" parent="1">
          <mxGeometry x="1080" y="260" width="80" height="80" as="geometry" />
        </mxCell>
        <mxCell id="gV20s4b7UiAh3y79HGsj-35" value="Supervisar el agua" style="whiteSpace=wrap;html=1;aspect=fixed;fillColor=#e3c800;fontColor=#000000;strokeColor=#B09500;" vertex="1" parent="1">
          <mxGeometry x="740" y="675" width="80" height="80" as="geometry" />
        </mxCell>
        <mxCell id="gV20s4b7UiAh3y79HGsj-36" value="Administrar inventario" style="whiteSpace=wrap;html=1;aspect=fixed;fillColor=#e3c800;fontColor=#000000;strokeColor=#B09500;" vertex="1" parent="1">
          <mxGeometry x="850" y="480" width="80" height="80" as="geometry" />
        </mxCell>
        <mxCell id="gV20s4b7UiAh3y79HGsj-37" value="Mantener moto" style="whiteSpace=wrap;html=1;aspect=fixed;fillColor=#ffcccc;strokeColor=#36393d;" vertex="1" parent="1">
          <mxGeometry x="380" y="470" width="80" height="80" as="geometry" />
        </mxCell>
        <mxCell id="gV20s4b7UiAh3y79HGsj-38" value="Ayudar personal" style="whiteSpace=wrap;html=1;aspect=fixed;fillColor=#e1d5e7;strokeColor=#9673a6;" vertex="1" parent="1">
          <mxGeometry x="740" y="370" width="80" height="80" as="geometry" />
        </mxCell>
        <mxCell id="gV20s4b7UiAh3y79HGsj-39" value="Inventario&amp;nbsp;&lt;br&gt;Materias primas&amp;nbsp;&lt;br&gt;Costos" style="whiteSpace=wrap;html=1;aspect=fixed;fillColor=#e3c800;fontColor=#000000;strokeColor=#B09500;" vertex="1" parent="1">
          <mxGeometry x="850" y="360" width="80" height="80" as="geometry" />
        </mxCell>
        <mxCell id="gV20s4b7UiAh3y79HGsj-40" value="Tomar pedidos por pagina web" style="whiteSpace=wrap;html=1;aspect=fixed;fillColor=#ffe6cc;strokeColor=#d79b00;" vertex="1" parent="1">
          <mxGeometry x="500" y="670" width="80" height="80" as="geometry" />
        </mxCell>
        <mxCell id="gV20s4b7UiAh3y79HGsj-43" value="Correcto manejo de tiempo" style="whiteSpace=wrap;html=1;aspect=fixed;fillColor=#ffcccc;strokeColor=#36393d;" vertex="1" parent="1">
          <mxGeometry x="1080" y="580" width="80" height="80" as="geometry" />
        </mxCell>
        <mxCell id="gV20s4b7UiAh3y79HGsj-44" value="Supervisar el estado del instrumental" style="whiteSpace=wrap;html=1;aspect=fixed;fillColor=#e3c800;fontColor=#000000;strokeColor=#B09500;" vertex="1" parent="1">
          <mxGeometry x="1080" y="675" width="80" height="80" as="geometry" />
        </mxCell>
      </root>
    </mxGraphModel>
  </diagram>
</mxfile>
